<svg width="48" height="48" viewBox="0 0 48 48" fill="none" xmlns="http://www.w3.org/2000/svg">
<path d="M43.3887 17.1388H41.045C40.9148 14.8601 40.3777 12.728 39.4337 10.7423C38.4896 8.75663 37.2527 7.02324 35.7227 5.54211C34.1928 4.06099 32.4024 2.89726 30.3516 2.0509C28.3334 1.20455 26.1687 0.781372 23.8575 0.781372C21.5463 0.781372 19.3816 1.20455 17.3633 2.0509C15.3126 2.89726 13.5222 4.05286 11.9922 5.5177C10.4623 6.98254 9.22532 8.70781 8.28131 10.6935C7.3373 12.6792 6.80019 14.8113 6.66998 17.09V17.1388H4.32623C3.25201 17.1388 2.33242 17.5213 1.56744 18.2863C0.80247 19.0512 0.419983 19.9708 0.419983 21.045V27.295C0.419983 28.3693 0.80247 29.2889 1.56744 30.0538C2.33242 30.8188 3.25201 31.2013 4.32623 31.2013H7.45123C8.10227 31.2013 8.65566 30.9734 9.11139 30.5177C9.56712 30.062 9.79498 29.5086 9.79498 28.8575V19.4825C9.79498 18.9943 9.65664 18.5467 9.37994 18.1398C9.10325 17.7329 8.73704 17.448 8.28131 17.2853C8.34642 15.2019 8.80214 13.2488 9.6485 11.4259C10.4949 9.60299 11.6179 8.01607 13.0176 6.66516C14.4174 5.31425 16.045 4.24817 17.9005 3.46692C19.7559 2.68567 21.7416 2.29504 23.8575 2.29504C25.9734 2.29504 27.959 2.68567 29.8145 3.46692C31.67 4.24817 33.2976 5.31425 34.6973 6.66516C36.0971 8.01607 37.2201 9.60299 38.0665 11.4259C38.9128 13.2488 39.3685 15.2019 39.4337 17.2853C39.0105 17.448 38.6524 17.7329 38.3594 18.1398C38.0665 18.5467 37.92 18.9943 37.92 19.4825V28.8575C37.92 29.3784 38.0665 29.8341 38.3594 30.2247C38.6524 30.6154 39.0268 30.892 39.4825 31.0548V33.545C39.4825 34.8797 39.2383 36.1492 38.7501 37.3536C38.2618 38.5255 37.5863 39.5672 36.7237 40.4786C35.8611 41.3901 34.8601 42.1225 33.7208 42.6759C32.5814 43.2618 31.3445 43.5874 30.0098 43.6525C29.8145 43.0014 29.4402 42.4562 28.8868 42.0167C28.3334 41.5773 27.6986 41.3575 26.9825 41.3575H20.7325C19.8536 41.3575 19.113 41.6587 18.5108 42.2609C17.9086 42.8631 17.6075 43.6036 17.6075 44.4825C17.6075 45.3615 17.9086 46.102 18.5108 46.7042C19.113 47.3064 19.8536 47.6075 20.7325 47.6075H26.9825C27.6986 47.6075 28.3415 47.3797 28.9112 46.924C29.4809 46.4682 29.8471 45.9148 30.0098 45.2638V45.215C31.5398 45.1173 32.9883 44.7592 34.3555 44.1407C35.6902 43.4897 36.8539 42.6352 37.8467 41.5773C38.8396 40.5193 39.6127 39.3068 40.1661 37.9396C40.752 36.5724 41.045 35.1075 41.045 33.545V31.2013H43.3887C44.463 31.2013 45.3825 30.8188 46.1475 30.0538C46.9125 29.2889 47.295 28.3693 47.295 27.295V21.045C47.295 19.9708 46.9125 19.0512 46.1475 18.2863C45.3825 17.5213 44.463 17.1388 43.3887 17.1388ZM5.10748 29.6388H4.32623C3.67519 29.6388 3.12181 29.4109 2.66608 28.9552C2.21035 28.4995 1.98248 27.9461 1.98248 27.295V21.045C1.98248 20.394 2.21035 19.8406 2.66608 19.3849C3.12181 18.9292 3.67519 18.7013 4.32623 18.7013H5.10748V29.6388ZM8.23248 28.8575C8.23248 29.0854 8.15924 29.2726 8.01276 29.4191C7.86627 29.5656 7.6791 29.6388 7.45123 29.6388H6.66998V18.7013H7.45123C7.6791 18.7013 7.86627 18.7745 8.01276 18.921C8.15924 19.0675 8.23248 19.2547 8.23248 19.4825V28.8575ZM26.9825 46.045H20.7325C20.3093 46.045 19.9431 45.8904 19.6339 45.5812C19.3246 45.2719 19.17 44.9057 19.17 44.4825C19.17 44.0594 19.3246 43.6932 19.6339 43.3839C19.9431 43.0747 20.3093 42.92 20.7325 42.92H26.9825C27.4057 42.92 27.7719 43.0747 28.0811 43.3839C28.3904 43.6932 28.545 44.0594 28.545 44.4825C28.545 44.9057 28.3904 45.2719 28.0811 45.5812C27.7719 45.8904 27.4057 46.045 26.9825 46.045ZM41.045 29.6388H40.2637C40.0359 29.6388 39.8487 29.5656 39.7022 29.4191C39.5557 29.2726 39.4825 29.0854 39.4825 28.8575V19.4825C39.4825 19.2547 39.5557 19.0675 39.7022 18.921C39.8487 18.7745 40.0359 18.7013 40.2637 18.7013H41.045V29.6388ZM45.7325 27.295C45.7325 27.9461 45.5046 28.4995 45.0489 28.9552C44.5932 29.4109 44.0398 29.6388 43.3887 29.6388H42.6075V18.7013H43.3887C44.0398 18.7013 44.5932 18.9292 45.0489 19.3849C45.5046 19.8406 45.7325 20.394 45.7325 21.045V27.295ZM34.795 24.17C34.795 22.6726 34.502 21.2566 33.9161 19.922C33.3627 18.5874 32.5896 17.4236 31.5967 16.4308C30.6039 15.4379 29.4402 14.6648 28.1055 14.1115C26.7709 13.5255 25.3549 13.2325 23.8575 13.2325C22.3601 13.2325 20.9441 13.5255 19.6094 14.1115C18.2748 14.6648 17.1111 15.4379 16.1182 16.4308C15.1254 17.4236 14.3523 18.5874 13.7989 19.922C13.213 21.2566 12.92 22.6726 12.92 24.17C12.92 25.6674 13.213 27.0835 13.7989 28.4181C14.3523 29.7527 15.1254 30.9165 16.1182 31.9093C17.1111 32.9021 18.2748 33.6753 19.6094 34.2286C20.9441 34.8146 22.3601 35.1075 23.8575 35.1075C25.3549 35.1075 26.7709 34.8146 28.1055 34.2286C29.4402 33.6753 30.6039 32.9021 31.5967 31.9093C32.5896 30.9165 33.3627 29.7527 33.9161 28.4181C34.502 27.0835 34.795 25.6674 34.795 24.17ZM14.4825 24.17C14.4825 21.5659 15.3939 19.3523 17.2169 17.5294C19.0398 15.7065 21.2533 14.795 23.8575 14.795C26.4616 14.795 28.6752 15.7065 30.4981 17.5294C32.321 19.3523 33.2325 21.5659 33.2325 24.17C33.2325 26.7742 32.321 28.9878 30.4981 30.8107C28.6752 32.6336 26.4616 33.545 23.8575 33.545C21.2859 33.545 19.0805 32.6254 17.2413 30.7863C15.4021 28.9471 14.4825 26.7417 14.4825 24.17ZM29.8633 19.2384L28.7891 18.1642L23.8575 23.047L21.2696 20.5079L20.1954 21.5822L23.8575 25.2931L29.8633 19.2384Z" fill="#F4F4F4"/>
</svg>
