<svg width="47" height="51" viewBox="0 0 47 51" fill="none" xmlns="http://www.w3.org/2000/svg">
<path d="M3.25 15.1968V36.5835L18.9971 45.5679C18.818 46.0887 18.6715 46.6095 18.5576 47.1304C18.4437 47.6512 18.3379 48.1883 18.2402 48.7417L0.125 38.3901V13.3901L22 0.890137L43.875 13.3901V22.7651C43.4193 22.3094 42.931 21.9025 42.4102 21.5444C41.8893 21.1864 41.3359 20.8364 40.75 20.4946V15.1968L22 4.479L3.25 15.1968ZM22 18.7856L15.75 22.3501V29.4302L21.2432 32.5796C21.2757 33.2632 21.3571 33.9386 21.4873 34.606C21.6175 35.2733 21.8047 35.9325 22.0488 36.5835L22 36.6079L12.625 31.2368V20.5435L22 15.1724L29.9346 19.7134C29.3649 19.9412 28.8115 20.1935 28.2744 20.4702C27.7373 20.7469 27.2083 21.0724 26.6875 21.4468L22 18.7856ZM40.042 39.6841C41.0999 40.2212 42.0602 40.8804 42.9229 41.6616C43.7855 42.4429 44.5179 43.3218 45.1201 44.2983C45.7223 45.2749 46.1862 46.3166 46.5117 47.4233C46.8372 48.5301 47 49.6857 47 50.8901H43.875C43.875 49.6043 43.6309 48.3918 43.1426 47.2524C42.6543 46.1131 41.987 45.1203 41.1406 44.2739C40.2943 43.4276 39.2933 42.7521 38.1377 42.2476C36.9821 41.743 35.7695 41.4989 34.5 41.5151C33.1979 41.5151 31.9854 41.7593 30.8623 42.2476C29.7393 42.7358 28.7464 43.4032 27.8838 44.2495C27.0212 45.0959 26.3457 46.0968 25.8574 47.2524C25.3691 48.408 25.125 49.6206 25.125 50.8901H22C22 49.702 22.1628 48.5545 22.4883 47.4478C22.8138 46.341 23.2777 45.2912 23.8799 44.2983C24.4821 43.3055 25.2145 42.4266 26.0771 41.6616C26.9398 40.8966 27.9001 40.2375 28.958 39.6841C27.7536 38.8052 26.8177 37.7065 26.1504 36.3882C25.4831 35.0698 25.1413 33.6538 25.125 32.1401C25.125 30.8543 25.3691 29.6418 25.8574 28.5024C26.3457 27.3631 27.013 26.3703 27.8594 25.5239C28.7057 24.6776 29.6986 24.0021 30.8379 23.4976C31.9772 22.993 33.1979 22.7489 34.5 22.7651C35.7858 22.7651 36.9984 23.0093 38.1377 23.4976C39.277 23.9858 40.2699 24.6532 41.1162 25.4995C41.9626 26.3459 42.6299 27.3468 43.1182 28.5024C43.6064 29.658 43.8506 30.8706 43.8506 32.1401C43.8506 33.6375 43.5169 35.0454 42.8496 36.3638C42.1823 37.6821 41.2464 38.7889 40.042 39.6841ZM28.25 32.1401C28.25 33.0028 28.4128 33.8084 28.7383 34.5571C29.0638 35.3058 29.5114 35.9731 30.0811 36.5591C30.6507 37.145 31.3099 37.5926 32.0586 37.9019C32.8073 38.2111 33.6211 38.3739 34.5 38.3901C35.3626 38.3901 36.1683 38.2274 36.917 37.9019C37.6657 37.5763 38.333 37.1287 38.9189 36.5591C39.5049 35.9894 39.9525 35.3302 40.2617 34.5815C40.571 33.8328 40.7337 33.019 40.75 32.1401C40.75 31.2775 40.5872 30.4718 40.2617 29.7231C39.9362 28.9744 39.4886 28.3071 38.9189 27.7212C38.3493 27.1353 37.6901 26.6877 36.9414 26.3784C36.1927 26.0692 35.3789 25.9064 34.5 25.8901C33.6374 25.8901 32.8317 26.0529 32.083 26.3784C31.3343 26.7039 30.667 27.1515 30.0811 27.7212C29.4951 28.2909 29.0475 28.95 28.7383 29.6987C28.429 30.4474 28.2663 31.2612 28.25 32.1401Z" fill="#F4F4F4"/>
</svg>
