<svg width="40" height="37" viewBox="0 0 40 37" fill="none" xmlns="http://www.w3.org/2000/svg">
<path fill-rule="evenodd" clip-rule="evenodd" d="M13.3917 0.140137C11.7349 0.141043 10.1463 0.799713 8.975 1.97139L2.72292 8.22139C1.55123 9.39344 0.893005 10.9829 0.893005 12.6401C0.893005 14.2974 1.55123 15.8868 2.72292 17.0589L9.98334 24.3193C9.85994 25.4989 10.0017 26.6911 10.3982 27.8088C10.7947 28.9266 11.4359 29.9416 12.275 30.7797C13.1132 31.6195 14.1285 32.2613 15.2466 32.6582C16.3647 33.055 17.5575 33.1969 18.7375 33.0735L21.6521 35.9901C22.043 36.3808 22.5731 36.6001 23.1257 36.5999C23.6784 36.5997 24.2083 36.38 24.599 35.9891C24.9896 35.5982 25.209 35.0681 25.2088 34.5154C25.2086 33.9628 24.9888 33.4329 24.5979 33.0422L22.9125 31.3568C23.1354 31.1776 23.35 30.986 23.5583 30.7797L24.1667 30.1693L26.8604 32.8631C27.2533 33.2426 27.7796 33.4525 28.3258 33.4478C28.8721 33.443 29.3946 33.2239 29.7809 32.8377C30.1671 32.4514 30.3862 31.9289 30.391 31.3826C30.3957 30.8364 30.1857 30.3101 29.8063 29.9172L27.1125 27.2235L28.3333 26.0026L32.0688 29.7381C32.4617 30.1176 32.9879 30.3275 33.5342 30.3228C34.0804 30.318 34.6029 30.0989 34.9892 29.7127C35.3755 29.3264 35.5946 28.8039 35.5993 28.2576C35.6041 27.7114 35.3941 27.1851 35.0146 26.7922L31.2792 23.0568L37.2771 17.0589C38.4488 15.8868 39.107 14.2974 39.107 12.6401C39.107 10.9829 38.4488 9.39344 37.2771 8.22139L31.0271 1.97139C29.8553 0.799203 28.2658 0.140491 26.6083 0.140137H13.3917ZM34.3292 14.1131C34.7197 13.7224 34.9391 13.1926 34.9391 12.6401C34.9391 12.0877 34.7197 11.5579 34.3292 11.1672L28.0792 4.91722C27.6891 4.527 27.1601 4.30747 26.6083 4.3068H13.3938C12.8413 4.30692 12.3114 4.52649 11.9208 4.91722L5.67084 11.1672C5.28027 11.5579 5.06087 12.0877 5.06087 12.6401C5.06087 13.1926 5.28027 13.7224 5.67084 14.1131L11.7021 20.1422C11.8792 19.9214 12.0729 19.7047 12.2792 19.5006L17.0542 14.7235L14.3604 12.0297C13.9809 11.6368 13.7709 11.1105 13.7757 10.5643C13.7804 10.0181 13.9995 9.49553 14.3858 9.10927C14.7721 8.723 15.2946 8.5039 15.8408 8.49915C16.3871 8.4944 16.9133 8.70439 17.3063 9.08389L20 11.7776L24.7771 7.00055C24.9693 6.80157 25.1992 6.64286 25.4533 6.53368C25.7075 6.42449 25.9809 6.36702 26.2575 6.36462C26.5341 6.36221 26.8085 6.41492 27.0645 6.51967C27.3205 6.62443 27.5531 6.77912 27.7487 6.97473C27.9444 7.17034 28.099 7.40295 28.2038 7.65898C28.3085 7.91502 28.3613 8.18935 28.3589 8.46597C28.3565 8.7426 28.299 9.01597 28.1898 9.27015C28.0806 9.52432 27.9219 9.75421 27.7229 9.94639L15.2229 22.4464C14.5085 23.1608 14.1071 24.1298 14.1071 25.1401C14.1071 26.1505 14.5085 27.1195 15.2229 27.8339C15.9373 28.5483 16.9063 28.9497 17.9167 28.9497C18.927 28.9497 19.896 28.5483 20.6104 27.8339L34.3292 14.1131Z" fill="#F4F4F4"/>
</svg>
