<svg width="37" height="51" viewBox="0 0 37 51" fill="none" xmlns="http://www.w3.org/2000/svg">
<path d="M18.584 27.8066C17.2169 27.8066 16.045 28.2949 15.0684 29.2715C14.0919 30.248 13.6036 31.4199 13.6036 32.7871C13.6036 33.4707 13.7419 34.1217 14.0186 34.7402C14.2953 35.3587 14.6778 35.9121 15.1661 36.4004V40.8438C15.1661 41.7878 15.4997 42.5934 16.1671 43.2607C16.8344 43.9281 17.64 44.2617 18.584 44.2617C19.5281 44.2617 20.3337 43.9281 21.001 43.2607C21.6684 42.5934 22.002 41.7878 22.002 40.8438V36.4004C22.4903 35.9121 22.8728 35.3587 23.1495 34.7402C23.4262 34.1217 23.5645 33.4707 23.5645 32.7871C23.5645 31.4199 23.0762 30.248 22.0997 29.2715C21.1231 28.2949 19.9512 27.8066 18.584 27.8066ZM20.3419 34.6426C20.114 34.8704 19.935 35.1309 19.8047 35.4238C19.6745 35.7168 19.6094 36.026 19.6094 36.3516V40.8438C19.6094 41.1367 19.5118 41.3809 19.3165 41.5762C19.1212 41.7715 18.877 41.8691 18.584 41.8691C18.2911 41.8691 18.0469 41.7715 17.8516 41.5762C17.6563 41.3809 17.5587 41.1367 17.5587 40.8438V36.3516C17.5587 36.026 17.4936 35.7168 17.3633 35.4238C17.2331 35.1309 17.0541 34.8704 16.8262 34.6426C16.5658 34.3822 16.3705 34.0973 16.2403 33.7881C16.1101 33.4788 16.045 33.1452 16.045 32.7871C16.045 32.071 16.2891 31.4606 16.7774 30.9561C17.2657 30.4515 17.8679 30.1992 18.584 30.1992C19.3002 30.1992 19.9024 30.4515 20.3907 30.9561C20.879 31.4606 21.1231 32.071 21.1231 32.7871C21.1231 33.1452 21.058 33.4788 20.9278 33.7881C20.7976 34.0973 20.6023 34.3822 20.3419 34.6426ZM33.1348 21.3125H29.5215V11.7422C29.5215 10.2448 29.2286 8.82878 28.6426 7.49414C28.0893 6.1595 27.3161 4.99577 26.3233 4.00293C25.3305 3.01009 24.1667 2.2207 22.8321 1.63477C21.4975 1.08138 20.0814 0.804688 18.584 0.804688C17.0866 0.804688 15.6706 1.08138 14.336 1.63477C13.0014 2.2207 11.8376 3.01009 10.8448 4.00293C9.85195 4.99577 9.07884 6.1595 8.52545 7.49414C7.93951 8.82878 7.64655 10.2448 7.64655 11.7422V21.3125H4.03326C3.0567 21.3125 2.21035 21.6624 1.4942 22.3623C0.778056 23.0622 0.419983 23.9004 0.419983 24.877V47.1914C0.419983 48.2005 0.778056 49.055 1.4942 49.7549C2.21035 50.4548 3.0567 50.8047 4.03326 50.8047H33.1348C34.1114 50.8047 34.9577 50.4548 35.6739 49.7549C36.39 49.055 36.7481 48.2005 36.7481 47.1914V24.877C36.7481 23.9004 36.39 23.0622 35.6739 22.3623C34.9577 21.6624 34.1114 21.3125 33.1348 21.3125ZM10.0391 11.7422C10.0391 9.39844 10.8773 7.38835 12.5538 5.71191C14.2302 4.03548 16.2403 3.19727 18.584 3.19727C20.9278 3.19727 22.9379 4.03548 24.6143 5.71191C26.2908 7.38835 27.129 9.39844 27.129 11.7422V21.3125H10.0391V11.7422ZM34.3555 47.1914C34.3555 47.5169 34.2335 47.8018 33.9893 48.0459C33.7452 48.29 33.4603 48.4121 33.1348 48.4121H4.03326C3.70774 48.4121 3.42291 48.29 3.17877 48.0459C2.93463 47.8018 2.81256 47.5169 2.81256 47.1914V24.877C2.81256 24.5514 2.93463 24.2747 3.17877 24.0469C3.42291 23.819 3.70774 23.7051 4.03326 23.7051H33.1348C33.4603 23.7051 33.7452 23.819 33.9893 24.0469C34.2335 24.2747 34.3555 24.5514 34.3555 24.877V47.1914Z" fill="#F4F4F4"/>
</svg>
