<svg width="39" height="51" viewBox="0 0 39 51" fill="none" xmlns="http://www.w3.org/2000/svg">
<path d="M24.4434 42.4552C23.6622 42.4552 22.9867 42.74 22.4171 43.3097C21.8474 43.8794 21.5626 44.5711 21.5626 45.3849C21.5626 46.1987 21.8474 46.8904 22.4171 47.4601C22.9867 48.0297 23.6622 48.3146 24.4434 48.3146C25.2572 48.3146 25.949 48.0297 26.5186 47.4601C27.0883 46.8904 27.3731 46.1987 27.3731 45.3849C27.3731 44.5711 27.0883 43.8794 26.5186 43.3097C25.949 42.74 25.2572 42.4552 24.4434 42.4552ZM24.4434 46.6056C24.1179 46.6056 23.8331 46.4835 23.5889 46.2394C23.3448 45.9952 23.2227 45.7104 23.2227 45.3849C23.2227 45.0268 23.3448 44.7257 23.5889 44.4816C23.8331 44.2374 24.1179 44.1154 24.4434 44.1154C24.8015 44.1154 25.1026 44.2374 25.3467 44.4816C25.5909 44.7257 25.713 45.0268 25.713 45.3849C25.713 45.7104 25.5909 45.9952 25.3467 46.2394C25.1026 46.4835 24.8015 46.6056 24.4434 46.6056ZM28.2032 31.6154C29.1146 31.6154 29.8959 31.2898 30.5469 30.6388C31.198 29.9878 31.5235 29.2065 31.5235 28.295C31.5235 27.3836 31.198 26.6023 30.5469 25.9513C29.8959 25.3003 29.1146 24.9747 28.2032 24.9747C27.2917 24.9747 26.5105 25.3003 25.8594 25.9513C25.2084 26.6023 24.8829 27.3836 24.8829 28.295C24.8829 29.2065 25.2084 29.9878 25.8594 30.6388C26.5105 31.2898 27.2917 31.6154 28.2032 31.6154ZM28.2032 26.6349C28.6589 26.6349 29.0495 26.7976 29.3751 27.1232C29.7006 27.4487 29.8633 27.8393 29.8633 28.295C29.8633 28.7508 29.7006 29.1414 29.3751 29.4669C29.0495 29.7924 28.6589 29.9552 28.2032 29.9552C27.7475 29.9552 27.3568 29.7924 27.0313 29.4669C26.7058 29.1414 26.543 28.7508 26.543 28.295C26.543 27.8393 26.7058 27.4487 27.0313 27.1232C27.3568 26.7976 27.7475 26.6349 28.2032 26.6349ZM8.23248 10.8146C8.33014 10.8146 8.4278 10.7902 8.52545 10.7413C8.62311 10.6925 8.72076 10.6355 8.81842 10.5704L10.4786 8.86145C10.6413 8.69869 10.7227 8.50338 10.7227 8.27551C10.7227 8.04765 10.6413 7.85234 10.4786 7.68958C10.3158 7.52681 10.1205 7.44543 9.89264 7.44543C9.66477 7.44543 9.46946 7.52681 9.3067 7.68958L7.64655 9.34973C7.48379 9.51249 7.4024 9.71594 7.4024 9.96008C7.4024 10.2042 7.48379 10.4077 7.64655 10.5704C7.71165 10.6355 7.79303 10.6925 7.89069 10.7413C7.98834 10.7902 8.10227 10.8146 8.23248 10.8146ZM38.213 25.5607C38.213 25.2026 38.1478 24.8608 38.0176 24.5353C37.8874 24.2098 37.6921 23.9168 37.4317 23.6564L36.9434 23.1681C37.334 22.81 37.6433 22.395 37.8712 21.923C38.099 21.451 38.213 20.9383 38.213 20.3849C38.213 19.3432 37.8467 18.4562 37.1143 17.7238C36.3819 16.9913 35.4949 16.6251 34.4532 16.6251C34.3881 16.6251 34.3148 16.6251 34.2335 16.6251C34.1521 16.6251 34.0788 16.6414 34.0137 16.674C34.0137 16.5763 34.0219 16.4949 34.0381 16.4298C34.0544 16.3647 34.0626 16.2996 34.0626 16.2345C34.0626 15.1928 33.6964 14.3058 32.9639 13.5734C32.2315 12.8409 31.3445 12.4747 30.3028 12.4747C30.2377 12.4747 30.1644 12.4747 30.0831 12.4747C30.0017 12.4747 29.9284 12.4747 29.8633 12.4747C29.8633 12.4096 29.8633 12.3445 29.8633 12.2794C29.8633 12.2143 29.8633 12.1329 29.8633 12.0353C29.8633 10.9936 29.4971 10.1066 28.7647 9.37415C28.0323 8.64172 27.1615 8.27551 26.1524 8.27551C26.0547 8.27551 25.9734 8.28365 25.9083 8.29993C25.8432 8.3162 25.7618 8.32434 25.6641 8.32434C25.6967 8.25924 25.713 8.18599 25.713 8.10461C25.713 8.02324 25.713 7.94999 25.713 7.88489C25.713 6.84322 25.3467 5.95618 24.6143 5.22375C23.8819 4.49133 22.9949 4.12512 21.9532 4.12512C21.3998 4.12512 20.8871 4.23906 20.4151 4.46692C19.9431 4.69478 19.5281 5.00403 19.17 5.39465L15.3614 1.58606C14.8406 1.06523 14.1977 0.80481 13.4327 0.80481C12.6677 0.80481 12.0248 1.06523 11.504 1.58606L1.20123 11.84C0.6804 12.3934 0.419983 13.0444 0.419983 13.7931C0.419983 14.5418 0.6804 15.1928 1.20123 15.7462L8.4278 22.9728C7.87441 23.2983 7.41868 23.7459 7.06061 24.3156C6.70254 24.8852 6.5235 25.5118 6.5235 26.1954C6.5235 26.8465 6.67812 27.4487 6.98737 28.0021C7.29661 28.5555 7.71165 28.9949 8.23248 29.3204C8.26504 29.353 8.29759 29.3855 8.33014 29.4181C8.36269 29.4506 8.39524 29.4832 8.4278 29.5157L17.3633 38.4513V39.965H15.7032V50.8048H37.3829V39.965H35.7227V37.4259C36.504 36.7423 37.1143 35.9366 37.5538 35.0089C37.9932 34.0812 38.213 33.0965 38.213 32.0548C38.213 31.3387 38.1072 30.6307 37.8956 29.9308C37.684 29.2309 37.3666 28.588 36.9434 28.0021L37.4317 27.5138C37.6921 27.2534 37.8874 26.9604 38.0176 26.6349C38.1478 26.3094 38.213 25.9513 38.213 25.5607ZM36.5528 20.3849C36.5528 20.7104 36.4796 21.0115 36.3331 21.2882C36.1866 21.5649 35.9994 21.8009 35.7715 21.9962L32.8419 19.0665C33.0372 18.8387 33.2732 18.6515 33.5499 18.505C33.8266 18.3585 34.1277 18.2853 34.4532 18.2853C35.0391 18.2853 35.5355 18.4887 35.9424 18.8956C36.3493 19.3025 36.5528 19.799 36.5528 20.3849ZM32.4024 16.2345C32.4024 16.5275 32.3292 16.8204 32.1827 17.1134C32.0362 17.4064 31.849 17.6505 31.6212 17.8458L28.6915 14.9161C28.8868 14.6557 29.1228 14.4604 29.3995 14.3302C29.6762 14.2 29.9773 14.1349 30.3028 14.1349C30.8887 14.1349 31.3852 14.3383 31.7921 14.7452C32.199 15.1521 32.4024 15.6486 32.4024 16.2345ZM28.2032 12.0353C28.2032 12.3608 28.1381 12.6619 28.0079 12.9386C27.8777 13.2153 27.6824 13.4513 27.4219 13.6466L24.4922 10.7169C24.6876 10.4891 24.9317 10.31 25.2247 10.1798C25.5176 10.0496 25.8269 9.9845 26.1524 9.9845C26.7058 9.9845 27.1859 10.1879 27.5928 10.5948C27.9997 11.0018 28.2032 11.4819 28.2032 12.0353ZM21.9532 5.78528C22.5391 5.78528 23.0355 5.98873 23.4424 6.39563C23.8493 6.80253 24.0528 7.29895 24.0528 7.88489C24.0528 8.21041 23.9796 8.51152 23.8331 8.78821C23.6866 9.0649 23.4994 9.3009 23.2715 9.49622L20.3419 6.56653C20.5372 6.33867 20.7732 6.15149 21.0499 6.005C21.3266 5.85852 21.6277 5.78528 21.9532 5.78528ZM2.42194 14.5743C2.19407 14.3465 2.08014 14.0861 2.08014 13.7931C2.08014 13.5001 2.19407 13.256 2.42194 13.0607L12.6758 2.75793C12.7084 2.72538 12.7572 2.68469 12.8223 2.63586C12.8874 2.58704 12.9525 2.56262 13.0176 2.56262C13.0502 2.53007 13.0827 2.51379 13.1153 2.51379C13.1478 2.51379 13.1804 2.51379 13.213 2.51379C13.2781 2.48124 13.3513 2.46497 13.4327 2.46497C13.5141 2.46497 13.5873 2.48124 13.6524 2.51379C13.685 2.51379 13.7175 2.51379 13.7501 2.51379C13.7826 2.51379 13.8152 2.53007 13.8477 2.56262C13.9128 2.56262 13.9698 2.58704 14.0186 2.63586C14.0674 2.68469 14.1244 2.72538 14.1895 2.75793L16.1426 4.71106L4.37506 16.5275L2.42194 14.5743ZM17.3145 5.93176L36.211 24.8282C36.4389 25.0236 36.5528 25.2758 36.5528 25.5851C36.5528 25.8943 36.4389 26.1466 36.211 26.3419L35.8692 26.7325L25.9571 36.5958C25.7618 36.8237 25.5176 36.9376 25.2247 36.9376C24.9317 36.9376 24.6713 36.8237 24.4434 36.5958L17.8028 29.9552H18.6329C19.6745 29.9552 20.5616 29.589 21.294 28.8566C22.0264 28.1241 22.3926 27.2371 22.3926 26.1954C22.3926 25.1863 22.0264 24.3156 21.294 23.5831C20.5616 22.8507 19.6745 22.4845 18.6329 22.4845H10.2833L5.54694 17.6993L17.3145 5.93176ZM9.84381 24.1935L10.1856 24.1447C10.2182 24.1447 10.2426 24.1447 10.2589 24.1447C10.2751 24.1447 10.2833 24.1447 10.2833 24.1447H18.6329C19.2188 24.1447 19.7152 24.3481 20.1221 24.755C20.529 25.1619 20.7325 25.642 20.7325 26.1954C20.7325 26.7814 20.529 27.2778 20.1221 27.6847C19.7152 28.0916 19.2188 28.295 18.6329 28.295H10.2833C9.72988 28.295 9.24974 28.0916 8.84283 27.6847C8.43593 27.2778 8.23248 26.7814 8.23248 26.1954C8.23248 25.7072 8.38711 25.2758 8.69635 24.9015C9.0056 24.5271 9.38808 24.2911 9.84381 24.1935ZM17.3633 49.1447V41.6251H24.3946C25.6641 41.6251 26.7546 42.0809 27.6661 42.9923C28.5775 43.9038 29.0333 44.9943 29.0333 46.2638V49.1447H17.3633ZM35.7227 49.1447H30.6934V46.2638C30.6934 45.3523 30.5144 44.4978 30.1563 43.7003C29.7982 42.9028 29.2937 42.2111 28.6426 41.6251H35.7227V49.1447ZM35.7227 29.2228C35.9831 29.646 36.1866 30.0935 36.3331 30.5656C36.4796 31.0376 36.5528 31.534 36.5528 32.0548C36.5528 32.9012 36.3656 33.6987 35.9913 34.4474C35.6169 35.1961 35.0717 35.8309 34.3555 36.3517L34.0626 36.6447V39.965H19.0235V37.7189L18.7305 37.4259C18.7305 37.4259 18.7143 37.4178 18.6817 37.4015C18.6491 37.3852 18.6166 37.3608 18.584 37.3282L11.211 29.9552H15.459L23.2715 37.7677C23.532 38.0607 23.8331 38.2723 24.1749 38.4025C24.5167 38.5327 24.8666 38.5978 25.2247 38.5978C25.5502 38.5978 25.8839 38.5327 26.2256 38.4025C26.5674 38.2723 26.8686 38.0607 27.129 37.7677L35.7227 29.2228Z" fill="#F4F4F4"/>
</svg>
